
<svg version="1.1" id="Layer_1" xmlns="http://www.w3.org/2000/svg" xmlns:xlink="http://www.w3.org/1999/xlink" x="0px" y="0px"
	 width="100%" viewBox="0 0 200 200" enable-background="new 0 0 200 200" xml:space="preserve">

<path fill="#8370D9" opacity="1.000000" stroke="none" 
	d="
M50.021011,88.798676 
	C50.325470,88.640099 50.553143,88.532272 50.661133,88.597107 
	C54.780739,91.354500 51.982498,95.365921 53.032684,99.014374 
	C53.804745,99.646820 54.256168,99.959007 54.919258,100.446472 
	C63.862366,101.374649 72.603279,100.985283 81.717384,100.707611 
	C84.125732,100.152107 85.271774,99.120644 85.090294,96.823334 
	C84.934029,94.845322 85.096367,92.844139 85.053009,90.854622 
	C85.013580,89.045364 85.696426,88.121140 87.645279,88.067589 
	C89.758179,88.009514 90.709686,88.830193 90.643402,90.961945 
	C90.576408,93.116234 90.665558,95.274994 90.621170,97.430450 
	C90.526001,102.051369 88.068649,104.640686 83.523773,104.648430 
	C69.599899,104.672165 55.675694,104.494835 41.406319,104.189186 
	C53.833794,102.900398 66.632339,103.850945 79.414192,103.457535 
	C66.604179,103.563751 53.793896,103.414703 40.539360,103.640015 
	C38.368778,103.639847 37.655106,101.333069 35.352867,101.876831 
	C35.012897,102.031982 34.689037,101.660759 34.821552,101.453117 
	C38.254578,96.045052 37.104919,93.196732 31.335505,92.465279 
	C29.927324,92.286743 28.607529,92.238434 28.635565,90.364922 
	C28.660767,88.680733 29.671200,88.263718 31.217916,88.056282 
	C38.606937,87.065300 41.448601,89.205841 42.032696,96.399612 
	C42.136925,97.683342 41.764252,99.371071 43.380192,99.803398 
	C45.196995,100.289482 47.344826,101.078697 48.744644,98.221725 
	C50.318508,95.002029 48.963844,91.887276 50.021011,88.798676 
z"/>
<path fill="#EC9052" opacity="1.000000" stroke="none" 
	d="
M154.721664,60.059296 
	C154.968292,59.628098 155.045258,59.480000 155.320770,59.179352 
	C155.908554,58.347965 156.436752,57.801933 157.452255,57.232510 
	C159.599716,56.662144 161.380768,56.624729 163.478867,57.386612 
	C164.294144,63.202133 160.386124,66.131683 156.451660,68.662216 
	C154.229401,70.091522 152.366653,71.257774 152.077362,74.090439 
	C151.874847,76.073479 150.611298,77.385719 148.769379,78.057060 
	C147.156662,78.644844 145.721985,79.359200 145.154556,81.555702 
	C144.909317,82.113258 144.793793,82.327705 144.450012,82.825836 
	C138.283371,85.454941 135.238388,90.355156 132.760742,96.238953 
	C132.303467,97.005806 131.934219,97.354889 131.128708,97.786133 
	C129.175797,98.368515 127.590332,98.347015 125.646629,97.737747 
	C124.589821,97.086922 124.318161,96.392418 124.378403,95.205063 
	C124.557442,94.360146 124.739792,93.913864 125.197189,93.205208 
	C125.806709,91.835602 126.079842,90.710381 126.805122,89.410431 
	C127.024612,89.148567 127.161148,88.893059 127.293549,88.834320 
	C127.838516,88.824379 128.129974,88.651421 128.074432,88.140320 
	C128.263565,87.157951 128.695908,86.323776 129.412598,85.271309 
	C130.570358,84.037949 131.811035,83.404312 132.711060,81.971573 
	C135.629089,78.837906 138.414108,76.011444 141.494843,73.041458 
	C141.991516,72.813370 142.192474,72.728813 142.701035,72.533783 
	C144.016129,71.558914 144.548218,70.298180 145.712646,69.137161 
	C145.901840,68.867409 145.974045,68.972946 145.920776,68.937584 
	C146.922104,68.191742 147.752625,67.247124 148.735031,66.027359 
	C148.946915,65.439461 149.116043,65.205818 149.606216,64.985703 
	C151.602890,63.608025 153.065079,61.962410 154.721664,60.059296 
z"/>
<path fill="#9F7AE9" opacity="1.000000" stroke="none" 
	d="
M192.751831,113.763115 
	C192.940262,114.458725 192.896896,114.914291 192.714081,115.685509 
	C190.760635,117.918083 191.048615,120.813171 189.296936,123.137619 
	C189.187744,123.465347 189.192642,123.763977 189.110168,123.888474 
	C188.450455,124.516663 187.935211,125.078987 187.339905,125.937103 
	C187.223999,126.199013 187.124481,126.187492 187.164139,126.156891 
	C186.522827,126.391060 186.501999,127.029747 186.240845,127.880356 
	C182.647919,132.602676 178.628799,136.331802 172.790985,138.171646 
	C169.559372,138.848877 166.934067,140.409622 163.884338,140.518127 
	C162.400436,140.570923 161.211166,140.244934 160.746826,138.752136 
	C160.210251,137.027100 161.471893,136.295151 162.772644,135.938156 
	C166.176178,135.004059 167.779892,131.698502 170.954559,129.926849 
	C171.402222,129.586685 171.573425,129.448044 171.991333,129.102921 
	C172.723755,128.529755 173.244965,128.212387 173.926422,127.636490 
	C174.398956,127.182434 174.671127,126.929108 175.152664,126.501511 
	C175.622375,126.076904 175.883774,125.827888 176.319763,125.368607 
	C176.755661,124.903275 177.031586,124.665771 177.552551,124.297134 
	C178.083527,123.947662 178.381470,123.741264 178.870483,123.335861 
	C179.193817,123.012207 179.319489,122.878052 179.626450,122.533493 
	C179.924835,122.177101 180.041901,122.031120 180.481766,121.415146 
	C181.212723,120.277161 181.559250,119.577362 182.013641,118.588455 
	C182.256866,118.137634 182.365524,117.962128 182.674347,117.547859 
	C183.031876,117.172729 183.189255,117.036346 183.615509,116.737991 
	C184.078735,116.497559 184.273102,116.419098 184.758636,116.225861 
	C187.026169,114.903198 188.568237,112.800606 191.598938,113.154953 
	C192.124039,113.320183 192.322037,113.421623 192.751831,113.763115 
z"/>
<path fill="#7763D5" opacity="1.000000" stroke="none" 
	d="
M73.663345,119.252106 
	C73.889168,118.224434 73.924263,117.480423 73.966064,116.363159 
	C76.097748,114.717232 78.054115,114.336815 79.375275,117.492310 
	C79.275986,122.668694 79.232658,127.374222 79.256355,132.541534 
	C79.339760,133.172897 79.356140,133.342453 79.302689,133.757812 
	C74.772667,135.716965 70.058395,135.408005 65.599792,134.734512 
	C60.797268,134.009048 59.429222,127.784355 62.454998,121.172119 
	C63.100796,120.795235 63.401779,120.588501 63.810974,120.097336 
	C63.950665,119.859505 63.937496,119.943481 63.900658,119.922287 
	C66.021271,119.400063 68.218025,118.163948 70.353271,120.612358 
	C70.488388,122.736412 68.772911,123.346870 68.067566,124.625031 
	C67.272758,126.065300 67.253296,127.491753 68.183350,128.856674 
	C68.785202,129.739914 69.697876,130.264267 70.755539,130.010254 
	C72.676628,129.548874 72.531021,127.857742 72.674004,126.394020 
	C72.897827,124.102730 72.300644,121.717003 73.663345,119.252106 
z"/>
<path fill="#7E6ADA" opacity="1.000000" stroke="none" 
	d="
M53.553688,119.307358 
	C57.744160,120.849808 60.493233,131.035645 57.972260,134.124023 
	C57.092201,135.202164 55.881706,134.933258 54.759708,134.857834 
	C53.208050,134.753525 53.021729,133.597351 53.017155,132.358749 
	C53.009201,130.204224 52.992260,128.049698 52.990818,125.895164 
	C52.989193,123.464638 51.532772,122.900269 49.411076,122.870010 
	C47.191006,122.838364 46.527298,123.948341 46.577518,125.942368 
	C46.631744,128.095291 46.533199,130.251907 46.580788,132.405167 
	C46.624222,134.370209 45.619637,134.963959 43.803322,134.956848 
	C41.988014,134.949722 41.008244,134.367615 41.062111,132.384918 
	C41.178993,128.083298 41.207588,123.779289 41.623318,119.235626 
	C45.706390,119.215546 49.427624,119.692451 53.553688,119.307358 
z"/>
<path fill="#7B67D3" opacity="1.000000" stroke="none" 
	d="
M97.214180,134.542191 
	C94.256859,134.781525 91.559967,134.784546 88.429161,134.667450 
	C87.995239,134.547333 87.522240,134.553391 87.315887,134.437820 
	C82.273132,132.486938 81.052826,130.014343 82.006966,124.125290 
	C82.800674,119.226486 86.360809,118.233643 90.464966,118.256081 
	C94.287689,118.276962 97.915619,118.908447 98.832016,123.583015 
	C99.385254,126.405098 99.141068,128.651642 95.295906,128.172546 
	C94.148949,128.029633 92.948601,128.010956 91.810204,128.183151 
	C90.489342,128.382950 88.173050,127.310013 88.114799,129.378159 
	C88.053391,131.558670 90.189400,131.947906 92.206696,131.909378 
	C94.014397,131.874817 95.827522,132.124451 97.809761,132.633453 
	C97.923920,133.491318 97.749893,133.918518 97.214180,134.542191 
z"/>
<path fill="#E79462" opacity="1.000000" stroke="none" 
	d="
M144.235260,82.233398 
	C143.302155,76.861710 149.307556,78.117516 150.481354,75.328896 
	C151.750290,72.314255 150.852066,68.747047 155.775421,67.674484 
	C159.977280,66.759117 161.589035,62.134293 163.856262,58.303642 
	C161.997925,53.975315 161.510956,48.838463 155.865723,47.106007 
	C159.095795,43.517101 161.374161,45.980961 163.265274,48.570145 
	C166.824341,53.442913 166.159637,60.448883 162.074478,65.191071 
	C160.723831,66.758934 158.466278,67.756790 158.678558,70.707634 
	C158.986389,71.705582 159.527451,72.141090 159.708893,73.114822 
	C159.543503,75.301865 158.265839,76.037994 156.659119,75.971123 
	C155.031631,75.903404 154.705551,76.711464 154.586380,78.332489 
	C153.012573,80.596649 150.589066,80.548889 148.372925,81.663162 
	C147.925247,81.967682 147.746140,82.090683 147.278473,82.368454 
	C146.576569,82.672478 146.150665,82.762123 145.386810,82.759575 
	C144.861572,82.640678 144.661743,82.554497 144.235260,82.233398 
z"/>
<path fill="#9282D6" opacity="1.000000" stroke="none" 
	d="
M104.219986,100.832779 
	C107.670387,98.535217 105.591522,95.168007 106.037857,92.449104 
	C106.369247,90.430397 105.470436,87.965736 109.016106,88.006737 
	C112.613853,88.048340 111.732536,90.578117 111.808792,92.567047 
	C111.884857,94.551102 111.906120,96.549316 111.760147,98.527206 
	C111.492744,102.150513 109.536026,104.208519 105.864784,104.738289 
	C94.667244,106.354103 94.129608,105.923752 94.129234,94.770981 
	C94.129120,91.292389 94.172440,87.813263 94.122955,84.335419 
	C94.098511,82.617378 94.487114,81.432953 96.522850,81.394730 
	C98.592262,81.355881 100.281448,81.592323 99.558502,84.707916 
	C97.262154,85.581696 97.280212,87.253296 97.280457,88.956566 
	C97.280807,91.436951 97.467461,93.937813 97.125175,96.392769 
	C96.581589,100.291489 98.158478,101.696190 102.052887,101.799065 
	C108.317711,101.964561 108.717125,101.810959 109.016174,95.855057 
	C108.573540,98.233681 109.426750,102.131744 104.219986,100.832779 
z"/>
<path fill="#806BD5" opacity="1.000000" stroke="none" 
	d="
M17.100569,89.526436 
	C20.220366,87.307236 22.176407,87.517921 22.139214,91.656242 
	C22.102057,95.790268 22.274239,99.932999 22.061749,104.056808 
	C21.822910,108.692032 16.121960,111.940582 12.163651,109.902718 
	C11.501567,109.561852 11.070170,109.150459 11.404238,108.408714 
	C11.792356,107.546959 11.838628,106.106010 12.983172,106.124077 
	C17.846779,106.200867 16.893486,102.731575 16.942070,99.881134 
	C16.998428,96.574654 16.981686,93.266930 17.100569,89.526436 
z"/>
<path fill="#A982D8" opacity="1.000000" stroke="none" 
	d="
M172.550247,128.694000 
	C170.120132,132.058380 167.820312,135.800385 163.375748,136.996399 
	C162.465530,137.241333 161.156570,137.051956 161.558182,138.561432 
	C161.845001,139.639435 162.936630,140.098190 163.942932,139.900146 
	C166.507965,139.395370 169.036652,138.705811 172.010254,138.138824 
	C167.612564,141.397614 162.194458,141.843719 156.295654,141.357605 
	C154.506607,139.953735 151.315216,140.855835 151.470551,137.768341 
	C151.628403,134.631226 153.981400,133.483566 156.680069,132.867874 
	C157.622513,132.652847 158.622086,132.668823 159.847794,131.990738 
	C164.174423,130.605042 168.034042,128.987228 172.550247,128.694000 
z"/>
<path fill="#B283C0" opacity="1.000000" stroke="none" 
	d="
M160.659668,132.618240 
	C159.824829,134.603256 158.017303,133.771545 156.505783,134.066910 
	C154.438614,134.470825 152.727036,135.484177 152.374512,137.622391 
	C151.995239,139.922974 154.441208,139.652115 155.788284,140.853668 
	C150.767593,141.391815 146.013428,139.867691 141.247284,137.205933 
	C139.784866,132.455322 140.604965,131.263290 146.422546,129.685425 
	C151.418365,130.229782 155.925232,131.053680 160.659668,132.618240 
z"/>
<path fill="#745DDD" opacity="1.000000" stroke="none" 
	d="
M103.688660,100.421852 
	C107.609703,101.703850 107.554390,98.856529 107.849388,96.928612 
	C108.164825,94.867134 107.920494,92.720016 108.686691,90.582451 
	C110.564232,93.777153 110.525948,97.293022 109.518608,100.510498 
	C108.518890,103.703651 105.273964,103.043518 102.654915,103.057823 
	C95.446312,103.097183 95.512077,103.096924 95.902588,95.966805 
	C96.083862,92.656891 95.870834,89.326904 95.991394,86.011642 
	C96.072952,83.768677 96.919724,82.773415 99.140854,84.958305 
	C99.474129,85.781578 99.541214,86.492302 99.520721,87.552132 
	C98.642540,91.393303 98.952942,94.908760 99.325577,98.756454 
	C100.381874,100.535728 101.901093,100.209259 103.688660,100.421852 
z"/>
<path fill="#7C66DB" opacity="1.000000" stroke="none" 
	d="
M27.110426,123.747772 
	C27.339262,124.522354 27.562019,124.999329 27.897699,125.723068 
	C28.961901,127.684929 28.291513,129.538452 28.300617,131.743561 
	C28.133978,132.167374 28.053768,132.111954 28.101242,132.100891 
	C27.828827,132.221191 27.553600,132.415710 27.191610,132.893555 
	C27.060143,133.113617 27.060699,133.019470 27.090614,133.055817 
	C25.637987,134.071030 24.191980,134.244812 22.648403,132.563507 
	C22.295485,130.249069 22.849201,128.063400 20.712065,126.279205 
	C20.199688,125.340591 20.106487,124.651810 20.237167,123.599762 
	C23.059843,119.834602 20.000757,119.216843 17.676031,117.846115 
	C17.433422,117.030930 17.504513,116.551064 17.989674,115.844559 
	C20.387684,115.421326 22.488148,115.555305 24.979689,115.532791 
	C25.902576,115.679955 26.313185,115.976173 26.989531,116.485138 
	C27.376432,116.530846 27.353279,116.593239 27.373915,116.619339 
	C27.268694,117.389832 27.835991,117.466400 28.498470,117.822578 
	C28.664417,119.211433 28.660498,120.392632 28.383602,121.808197 
	C27.600071,122.386566 27.236118,122.835381 27.110426,123.747772 
z"/>
<path fill="#7D69D6" opacity="1.000000" stroke="none" 
	d="
M112.463104,119.765762 
	C112.734085,120.594727 112.682388,121.200508 112.338333,121.924126 
	C111.324608,121.195107 110.279732,121.664162 108.487312,121.117043 
	C110.090569,121.660431 110.823372,121.426392 111.779556,121.837875 
	C107.716461,122.353523 106.329559,124.776848 106.983215,128.875397 
	C107.212868,130.315369 107.012070,131.833221 106.928764,133.311050 
	C106.857552,134.574234 105.933876,134.908966 104.863609,134.892838 
	C103.913673,134.878540 102.868759,135.172806 102.117683,134.255432 
	C100.230385,131.950317 102.545372,121.134468 105.708496,119.122719 
	C108.035545,119.995903 110.192673,118.261581 112.463104,119.765762 
z"/>
<path fill="#C088AB" opacity="1.000000" stroke="none" 
	d="
M147.228699,130.500610 
	C143.740570,130.929138 141.113281,132.060242 141.011658,136.554398 
	C136.983597,135.553513 134.052567,132.716599 131.206482,129.294281 
	C133.137787,127.415474 136.297668,127.346832 137.582733,124.135818 
	C142.024231,124.358658 144.348511,127.630836 147.228699,130.500610 
z"/>
<path fill="#F3903E" opacity="1.000000" stroke="none" 
	d="
M155.470642,46.883385 
	C161.778229,47.501869 163.571381,49.735451 163.991180,57.576645 
	C161.970169,57.985222 159.953751,57.984116 157.505432,57.970448 
	C156.914429,57.866722 156.755341,57.775558 156.555664,57.412369 
	C156.431290,56.642887 156.347488,56.145435 156.287766,55.269081 
	C155.377991,52.798653 153.139648,51.065712 154.667389,48.017319 
	C154.877228,47.393826 155.027618,47.153919 155.470642,46.883385 
z"/>
<path fill="#E7DFFB" opacity="1.000000" stroke="none" 
	d="
M73.514084,118.985580 
	C73.929710,121.626274 74.052231,124.283859 74.065437,126.942001 
	C74.075119,128.890915 74.508499,131.217255 71.818176,131.809769 
	C69.733421,132.268921 67.453239,131.589630 66.641655,129.747482 
	C65.700783,127.611870 65.074638,124.936142 67.447746,122.970467 
	C67.932785,122.568687 68.651299,122.448769 69.632004,122.116226 
	C70.342438,121.157089 73.093460,121.843384 71.660240,119.411263 
	C72.268738,119.072006 72.721420,119.037361 73.514084,118.985580 
z"/>
<path fill="#E29165" opacity="1.000000" stroke="none" 
	d="
M124.638596,96.822403 
	C126.687637,96.995209 128.415497,97.000168 130.575119,97.007507 
	C131.837112,97.793999 132.089584,98.802032 132.114655,100.292023 
	C132.070679,100.952721 132.036804,101.215691 131.920166,101.866821 
	C131.306366,103.752457 131.304214,105.398834 130.299774,107.155556 
	C129.427856,108.018585 128.696960,108.378738 127.943024,108.682564 
	C124.189095,110.195358 123.325462,109.679146 123.025810,105.717773 
	C122.952324,104.746284 123.008911,103.766518 122.938431,102.382019 
	C123.042198,100.581245 123.174278,99.189697 123.515030,97.434235 
	C123.921616,96.931732 124.119514,96.793152 124.638596,96.822403 
z"/>
<path fill="#735CD5" opacity="1.000000" stroke="none" 
	d="
M32.399063,124.233894 
	C32.354778,122.909966 32.337879,121.891808 32.351814,120.492752 
	C32.376087,119.567596 32.551014,119.089417 33.242874,118.471657 
	C34.625622,117.903107 35.653526,117.933876 36.961617,118.660263 
	C37.287548,123.695518 37.314175,128.472122 37.248787,133.720520 
	C36.815933,134.197479 36.543674,134.336731 36.135174,134.728394 
	C35.244293,134.837769 34.558231,134.828857 33.535213,134.755524 
	C32.266903,134.306076 32.264626,133.463120 32.258991,132.352829 
	C32.311398,130.637711 32.298878,129.223572 32.279175,127.385071 
	C32.036140,126.135361 32.235798,125.337799 32.399063,124.233894 
z"/>
<path fill="#7C65E1" opacity="1.000000" stroke="none" 
	d="
M17.584669,115.805588 
	C17.998569,116.460747 17.999737,116.883308 18.002243,117.622780 
	C17.661304,119.370811 17.081848,120.741165 16.846439,122.534348 
	C16.496729,124.000618 16.930986,125.071701 17.186329,126.543991 
	C17.320551,128.290512 17.216232,129.639694 16.615650,131.355164 
	C15.546930,133.121567 14.366420,134.062378 12.691597,133.456497 
	C10.928473,132.818680 11.081286,131.134216 11.021264,129.644394 
	C10.860647,125.657661 11.279669,121.658096 10.602020,117.250748 
	C10.446054,116.822350 10.415895,116.419212 10.551630,116.269440 
	C12.765135,114.943993 15.007258,115.717812 17.584669,115.805588 
z"/>
<path fill="#D69184" opacity="1.000000" stroke="none" 
	d="
M159.264587,72.238388 
	C158.841873,71.763512 158.676407,71.518562 158.654099,71.180542 
	C162.809860,70.634735 166.618896,71.473183 170.667145,73.113907 
	C171.682831,73.778564 172.420853,74.144516 173.109589,74.590080 
	C174.174408,75.278954 175.662506,75.683464 175.397858,77.399681 
	C175.143951,79.046120 173.876556,79.853622 172.507095,80.490219 
	C170.983414,81.198502 169.336227,81.280106 167.286224,81.344635 
	C165.297195,81.411438 163.719620,81.373306 161.829041,80.821976 
	C159.818497,79.275261 160.515778,78.206375 161.964172,77.223282 
	C162.985916,76.529762 164.562454,76.653671 165.086945,75.067268 
	C163.711975,73.189468 161.128525,73.833878 159.264587,72.238388 
z"/>
<path fill="#D08F8E" opacity="1.000000" stroke="none" 
	d="
M128.016617,124.318680 
	C124.751984,121.273354 124.133156,117.430229 123.138840,113.376602 
	C123.374016,112.908684 123.593269,112.821747 124.147881,112.848488 
	C124.885155,113.251801 125.200211,113.624146 125.521027,113.998489 
	C126.426888,115.055473 126.423073,117.263557 128.268982,117.034698 
	C129.766876,116.848984 129.549713,114.967583 129.990219,113.789658 
	C130.339676,112.855179 130.651932,111.911919 132.184814,111.956627 
	C134.496201,114.676025 135.833923,117.447884 135.433395,121.171272 
	C133.703064,124.201508 131.760162,126.019264 128.016617,124.318680 
z"/>
<path fill="#B084CA" opacity="1.000000" stroke="none" 
	d="
M192.107330,96.701782 
	C193.426926,98.541321 193.990433,100.314705 193.883606,102.610245 
	C189.881531,102.653542 188.009079,104.870247 187.147141,108.781784 
	C186.688034,110.145340 186.341141,111.171852 184.690826,110.823044 
	C182.974426,107.175873 183.722031,103.666359 183.637222,99.782982 
	C183.760361,98.753265 183.913651,98.182098 184.348541,97.238373 
	C186.857269,94.736496 189.225357,94.440506 192.107330,96.701782 
z"/>
<path fill="#CF8E92" opacity="1.000000" stroke="none" 
	d="
M166.345795,80.872574 
	C167.275787,80.329056 168.251770,80.103065 169.238678,80.034828 
	C171.296082,79.892593 173.644577,79.550140 174.366409,77.621246 
	C175.250336,75.259216 171.626892,75.754822 171.073486,73.631874 
	C174.238724,73.796021 176.785126,75.640228 179.459885,77.798111 
	C180.015686,82.774055 177.123291,84.028816 172.821808,84.207489 
	C170.132751,83.827080 167.728333,83.645798 166.345795,80.872574 
z"/>
<path fill="#C78998" opacity="1.000000" stroke="none" 
	d="
M127.746109,124.453613 
	C130.658707,124.681412 132.734695,123.129028 134.952118,120.952271 
	C137.052658,120.872475 137.908127,121.863625 138.134888,123.732407 
	C138.047394,128.298050 135.430405,129.227325 131.477875,128.990402 
	C129.370819,128.070435 128.736237,126.329071 127.746109,124.453613 
z"/>
<path fill="#6E5AC5" opacity="1.000000" stroke="none" 
	d="
M81.623245,100.485977 
	C82.053276,101.008736 82.010521,101.820709 81.975121,101.820389 
	C73.112427,101.740128 64.223061,102.843346 55.261429,100.956467 
	C63.805252,100.546432 72.479576,100.471123 81.623245,100.485977 
z"/>
<path fill="#8573D4" opacity="1.000000" stroke="none" 
	d="
M10.303336,117.213745 
	C13.598289,120.784927 11.407892,125.388550 11.938661,129.666656 
	C12.270369,132.340317 12.517323,134.300980 15.729144,131.207291 
	C16.459003,130.614166 16.964050,130.467682 17.902870,130.743622 
	C18.971251,131.928711 19.005228,132.984421 18.290722,134.399384 
	C17.028660,134.796600 16.029716,134.825943 15.047742,134.970535 
	C11.217498,135.534531 9.594284,134.188583 9.978325,130.075485 
	C10.363614,125.949013 10.125509,121.764320 10.303336,117.213745 
z"/>
<path fill="#C6889D" opacity="1.000000" stroke="none" 
	d="
M172.570862,83.653610 
	C176.009155,83.239174 178.831940,82.346413 179.348846,78.116211 
	C181.604691,78.420235 182.002960,80.693016 183.830994,81.727707 
	C183.888458,85.933968 180.953705,86.910133 177.565094,87.816055 
	C174.995789,87.355789 173.560425,85.995003 172.570862,83.653610 
z"/>
<path fill="#8275C6" opacity="1.000000" stroke="none" 
	d="
M82.322151,106.537369 
	C84.393066,106.539131 86.032333,106.502678 87.670074,106.537430 
	C88.999466,106.565636 90.526405,106.541122 90.463867,108.454361 
	C90.410385,110.090691 89.039253,109.988976 87.890099,109.999603 
	C85.777832,110.019142 83.665100,110.013283 81.552780,109.994232 
	C80.366364,109.983543 79.086922,109.923630 79.051300,108.326988 
	C79.005997,106.296860 80.633034,106.647263 82.322151,106.537369 
z"/>
<path fill="#C088AB" opacity="1.000000" stroke="none" 
	d="
M176.956726,87.322159 
	C180.043945,86.614441 181.982513,84.778465 183.848999,82.312347 
	C186.074356,82.601257 185.783310,84.838364 187.013031,86.412933 
	C186.822830,89.795410 184.165009,90.889885 181.747849,92.534660 
	C179.052704,91.658707 177.446060,90.110901 176.956726,87.322159 
z"/>
<path fill="#BA85B5" opacity="1.000000" stroke="none" 
	d="
M180.984695,92.313248 
	C183.462891,90.925659 184.316605,88.158035 186.975830,87.010910 
	C190.175232,87.870529 190.572189,90.852219 191.766144,93.640762 
	C189.730515,95.491325 188.829315,92.742859 187.180161,92.700691 
	C185.729416,93.594284 186.423798,95.431793 185.237335,96.761948 
	C184.976135,97.544121 184.938416,98.077644 184.842056,99.008087 
	C181.898285,98.063522 181.204620,95.426598 180.984695,92.313248 
z"/>
<path fill="#DE997A" opacity="1.000000" stroke="none" 
	d="
M124.371429,113.225227 
	C124.003677,113.009056 123.578903,113.001610 123.366837,112.998619 
	C121.608192,109.630363 122.160812,106.127716 122.693581,102.306671 
	C123.241302,102.496780 123.914505,103.066811 123.851105,103.537659 
	C123.169365,108.601021 125.442245,108.950745 129.607422,107.025848 
	C130.594574,111.177231 129.409302,112.628784 124.371429,113.225227 
z"/>
<path fill="#A77FD1" opacity="1.000000" stroke="none" 
	d="
M186.284302,108.214203 
	C186.170349,105.761276 187.860947,104.343880 188.963150,102.639832 
	C190.294434,100.581581 191.848404,101.178596 193.563599,102.814384 
	C194.122681,106.421265 194.419937,109.874596 193.155975,113.630966 
	C192.983627,114.003166 192.493927,114.001381 192.249100,113.997787 
	C191.241577,113.284103 190.763565,112.347099 190.889465,111.370041 
	C191.400146,107.406479 189.062653,107.820679 186.284302,108.214203 
z"/>
<path fill="#6E5AC5" opacity="1.000000" stroke="none" 
	d="
M40.325150,103.865677 
	C42.036396,102.280998 44.280972,103.039177 46.371937,103.024483 
	C57.827374,102.943970 69.283676,102.986099 80.747337,103.928368 
	C67.827011,103.928368 54.906677,103.928368 41.523689,103.955521 
	C40.892464,103.978600 40.723900,103.974525 40.325150,103.865677 
z"/>
<path fill="#725DCA" opacity="1.000000" stroke="none" 
	d="
M34.773739,101.090042 
	C34.954067,101.245476 34.952148,101.640968 34.982521,101.836472 
	C33.372074,106.234688 29.738779,105.222122 26.754902,104.744560 
	C24.687410,104.413643 24.249592,102.581810 26.492699,100.940201 
	C28.970858,100.094131 31.143288,100.665764 33.696342,100.753029 
	C34.117393,100.945068 34.593410,100.934616 34.773739,101.090042 
z"/>
<path fill="#B283C0" opacity="1.000000" stroke="none" 
	d="
M185.386307,96.966019 
	C185.009827,96.352097 184.972626,95.691788 185.008377,95.035454 
	C185.095169,93.441696 184.485809,91.414452 186.329620,90.605286 
	C188.595001,89.611122 188.683044,92.288040 189.854752,93.188950 
	C190.235641,93.481812 190.701843,93.663712 191.457809,93.941544 
	C191.973862,94.702599 192.161118,95.418480 192.433792,96.496048 
	C190.266403,96.951920 187.997711,95.358391 185.386307,96.966019 
z"/>
<path fill="#9282D6" opacity="1.000000" stroke="none" 
	d="
M100.422272,107.175896 
	C101.069588,106.714798 101.542778,106.371964 101.965752,106.425552 
	C103.396782,106.606827 105.481445,105.615196 105.746590,108.174187 
	C105.863159,109.299355 105.137398,109.962952 103.993927,110.034714 
	C102.089180,110.154243 99.800858,110.800964 100.422272,107.175896 
z"/>
<path fill="#9282D6" opacity="1.000000" stroke="none" 
	d="
M99.592979,98.644379 
	C96.851822,95.622963 97.931969,91.940880 99.120148,88.086029 
	C100.250107,91.312248 99.782486,94.762085 99.592979,98.644379 
z"/>
<path fill="#9282D6" opacity="1.000000" stroke="none" 
	d="
M32.520519,117.099182 
	C32.472534,115.814934 30.628082,113.977203 33.130466,114.025352 
	C34.805088,114.057579 37.634598,112.150925 37.698975,116.339615 
	C36.298470,118.496399 34.578979,118.070488 32.520519,117.099182 
z"/>
<path fill="#725DCA" opacity="1.000000" stroke="none" 
	d="
M71.474518,119.013214 
	C71.661270,120.207260 74.209030,122.316315 70.339821,122.095284 
	C69.272102,118.696594 66.534256,120.498344 64.286354,119.933105 
	C66.053391,117.844414 68.604057,118.462662 71.474518,119.013214 
z"/>
<path fill="#E7DFFB" opacity="1.000000" stroke="none" 
	d="
M79.536263,117.673630 
	C78.742638,115.245415 76.595764,115.918495 74.379318,115.926880 
	C73.040878,112.193031 76.069839,114.243538 77.169861,114.058006 
	C79.612221,113.646049 80.386383,115.103851 79.536263,117.673630 
z"/>
<path fill="#6E5AC5" opacity="1.000000" stroke="none" 
	d="
M18.439449,116.026123 
	C15.871679,116.042831 13.745955,116.047470 11.153798,116.085892 
	C15.776756,113.229004 21.081800,114.964745 26.615009,115.686523 
	C26.743931,116.112656 26.583637,116.242981 26.187435,116.172371 
	C23.594851,115.985641 21.238171,115.999855 18.439449,116.026123 
z"/>
<path fill="#725DCA" opacity="1.000000" stroke="none" 
	d="
M53.474968,98.918533 
	C50.368423,96.544312 53.305431,92.437553 50.963764,89.061455 
	C51.267296,88.603073 51.765472,88.544220 52.624470,88.594109 
	C53.529442,89.135788 53.457520,89.768044 53.589878,90.651413 
	C53.638470,93.464897 53.617542,95.983673 53.474968,98.918533 
z"/>
<path fill="#8275C6" opacity="1.000000" stroke="none" 
	d="
M49.325760,83.327644 
	C51.141884,83.125122 53.066906,81.929443 53.775581,84.295128 
	C54.048607,85.206535 53.410912,85.941330 52.459522,85.945793 
	C50.832695,85.953430 48.458820,86.873627 49.325760,83.327644 
z"/>
<path fill="#E79462" opacity="1.000000" stroke="none" 
	d="
M154.538696,47.860329 
	C154.448120,50.212414 156.084747,52.165497 156.509827,54.646729 
	C154.215179,53.025211 152.395645,51.077156 154.538696,47.860329 
z"/>
<path fill="#A982D8" opacity="1.000000" stroke="none" 
	d="
M189.479736,123.267532 
	C189.763565,120.900330 189.133148,117.885193 192.247040,116.073105 
	C192.381836,118.651382 191.463837,121.014038 189.479736,123.267532 
z"/>
<path fill="#8573D4" opacity="1.000000" stroke="none" 
	d="
M22.645277,130.808990 
	C23.188553,133.242294 24.872297,132.967133 26.735218,133.064392 
	C27.120531,133.092163 27.038406,133.510223 27.007236,133.720978 
	C26.561310,134.440659 25.936186,134.469513 25.100857,134.765472 
	C23.799473,134.890213 22.768181,134.884506 21.359539,134.794891 
	C20.071144,133.841080 20.015833,132.785431 20.526806,131.294952 
	C21.209499,130.612640 21.730116,130.496094 22.645277,130.808990 
z"/>
<path fill="#E79462" opacity="1.000000" stroke="none" 
	d="
M154.575714,59.887264 
	C154.771286,62.613892 152.934402,64.000999 150.181519,64.920685 
	C150.733749,62.769657 152.539474,61.422375 154.575714,59.887264 
z"/>
<path fill="#7C66DB" opacity="1.000000" stroke="none" 
	d="
M20.666719,130.909454 
	C20.986183,132.145462 20.989620,133.079880 20.987621,134.362640 
	C20.238607,134.768875 19.495029,134.826767 18.385632,134.799469 
	C18.013939,133.783936 18.008068,132.853592 18.008724,131.572906 
	C18.629002,130.391846 19.444489,130.327530 20.666719,130.909454 
z"/>
<path fill="#6E5AC5" opacity="1.000000" stroke="none" 
	d="
M53.520142,119.027664 
	C50.190693,120.738106 46.363586,120.046356 42.260017,119.293030 
	C41.974354,118.995010 42.387287,118.831070 42.605583,118.872231 
	C43.945229,118.277039 45.160831,118.576920 46.756348,118.738678 
	C49.149296,118.914787 51.130329,118.911194 53.520142,119.027664 
z"/>
<path fill="#D9CFF7" opacity="1.000000" stroke="none" 
	d="
M32.152363,117.149231 
	C33.779587,116.800613 35.343185,116.832809 37.280418,116.759979 
	C37.663059,117.261002 37.672066,117.867058 37.470993,118.696014 
	C36.141888,118.934105 35.022854,118.949295 33.488110,119.017563 
	C32.908611,119.171730 32.744831,119.272835 32.335388,119.222260 
	C32.089397,118.557076 32.089069,118.043564 32.152363,117.149231 
z"/>
<path fill="#725DCA" opacity="1.000000" stroke="none" 
	d="
M50.292782,88.642838 
	C50.215500,91.938721 50.107719,95.237434 49.986492,98.535637 
	C49.982243,98.651131 49.793980,98.867134 49.776108,98.858627 
	C49.541138,98.746712 49.321407,98.602791 49.016251,98.171814 
	C48.905418,95.204079 48.876194,92.531433 48.969147,89.425201 
	C49.259754,88.884766 49.428188,88.777931 49.895569,88.659256 
	C50.194523,88.647400 50.260098,88.645584 50.292782,88.642838 
z"/>
<path fill="#725DCA" opacity="1.000000" stroke="none" 
	d="
M112.754013,119.651299 
	C110.724037,119.873947 108.662285,119.758949 106.330093,119.382133 
	C108.296822,118.622734 110.543999,117.780296 112.754013,119.651299 
z"/>
<path fill="#E29165" opacity="1.000000" stroke="none" 
	d="
M132.554092,81.779922 
	C133.054382,83.566345 132.250214,84.701996 130.012970,85.023415 
	C129.863708,83.440353 131.215073,82.790810 132.554092,81.779922 
z"/>
<path fill="#E79462" opacity="1.000000" stroke="none" 
	d="
M145.597015,68.939621 
	C146.100494,70.724762 144.848495,71.708611 143.298340,72.840195 
	C142.871964,72.792328 142.745255,72.597633 142.759827,72.084419 
	C143.222397,70.434837 144.176422,69.653114 145.597015,68.939621 
z"/>
<path fill="#E79462" opacity="1.000000" stroke="none" 
	d="
M148.582153,65.867203 
	C149.012512,67.447594 148.355530,68.575356 146.233170,68.903778 
	C146.191025,67.532837 147.191071,66.721954 148.582153,65.867203 
z"/>
<path fill="#8370D9" opacity="1.000000" stroke="none" 
	d="
M33.781677,100.791451 
	C32.006897,100.977448 29.896397,101.009819 27.334614,100.992607 
	C29.035646,100.083801 31.244122,100.432106 33.781677,100.791451 
z"/>
<path fill="#8573D4" opacity="1.000000" stroke="none" 
	d="
M28.360126,132.132812 
	C28.092226,130.395401 28.050476,128.623413 28.009674,126.410629 
	C30.319586,126.840721 29.081947,128.873260 29.486347,130.716064 
	C29.449404,131.219666 29.380705,131.385559 29.174007,131.782745 
	C29.036005,132.014053 28.586273,132.098251 28.360126,132.132812 
z"/>
<path fill="#DE997A" opacity="1.000000" stroke="none" 
	d="
M126.751701,89.322815 
	C126.775581,90.230370 126.526558,91.312164 125.668289,92.723434 
	C125.061920,91.679817 125.441566,90.457161 126.751701,89.322815 
z"/>
<path fill="#DE997A" opacity="1.000000" stroke="none" 
	d="
M124.977554,96.617233 
	C124.682869,96.989166 124.406738,97.003334 123.927551,97.051529 
	C123.353897,95.715179 123.957962,94.600105 124.831970,93.274246 
	C125.059052,93.052910 125.123116,93.113922 125.155258,93.144302 
	C125.187401,93.174683 125.370018,93.595146 125.274048,93.803299 
	C125.117172,94.755707 125.056252,95.499962 124.977554,96.617233 
z"/>
<path fill="#AEA2E3" opacity="1.000000" stroke="none" 
	d="
M32.164200,124.194824 
	C33.074341,124.743004 33.146378,125.637978 32.491356,126.779076 
	C30.391090,126.351662 31.380264,125.380562 32.164200,124.194824 
z"/>
<path fill="#AEA2E3" opacity="1.000000" stroke="none" 
	d="
M32.010700,132.128082 
	C32.592918,132.739670 32.861923,133.427490 33.164589,134.403198 
	C31.850851,134.373428 30.638931,133.973999 32.010700,132.128082 
z"/>
<path fill="#A57DDE" opacity="1.000000" stroke="none" 
	d="
M97.231560,134.847641 
	C97.142601,134.285782 97.331474,133.793076 97.750801,133.159302 
	C98.933777,133.926895 98.808754,134.567780 97.231560,134.847641 
z"/>
<path fill="#E79462" opacity="1.000000" stroke="none" 
	d="
M156.246613,57.268692 
	C156.733994,57.241859 156.882568,57.406757 157.017166,57.796459 
	C156.715271,58.284378 156.357025,58.610878 155.759033,58.982094 
	C155.672226,58.483555 155.825165,57.940300 156.246613,57.268692 
z"/>
<path fill="#8573D4" opacity="1.000000" stroke="none" 
	d="
M27.379303,123.900024 
	C25.919645,123.133743 26.138662,122.496521 27.804005,122.061371 
	C27.954451,122.613258 27.798275,123.183960 27.379303,123.900024 
z"/>
<path fill="#7E6ADA" opacity="1.000000" stroke="none" 
	d="
M46.885139,118.758392 
	C46.009041,118.954689 44.849819,118.990997 43.257236,118.970352 
	C44.033154,118.207451 45.310829,118.321869 46.885139,118.758392 
z"/>
<path fill="#A982D8" opacity="1.000000" stroke="none" 
	d="
M187.512131,126.106354 
	C187.059341,125.206566 187.235382,124.397972 188.692322,124.056335 
	C188.618546,124.679878 188.209412,125.346786 187.512131,126.106354 
z"/>
<path fill="#8370D9" opacity="1.000000" stroke="none" 
	d="
M53.766579,90.701645 
	C53.433365,90.403618 53.207340,89.861099 52.983303,89.010727 
	C54.488064,88.676529 53.741852,89.789207 53.766579,90.701645 
z"/>
<path fill="#A982D8" opacity="1.000000" stroke="none" 
	d="
M186.357819,127.975128 
	C186.279312,127.562744 186.443863,126.968521 186.906097,126.250298 
	C187.002823,126.681961 186.801849,127.237625 186.357819,127.975128 
z"/>
<path fill="#E7DFFB" opacity="1.000000" stroke="none" 
	d="
M25.155277,134.926605 
	C25.348717,134.614670 25.866671,134.333420 26.680346,133.991943 
	C26.477310,134.273575 25.978550,134.615417 25.155277,134.926605 
z"/>
<path fill="#8573D4" opacity="1.000000" stroke="none" 
	d="
M28.642944,117.769913 
	C28.221590,117.756866 27.774843,117.483498 27.361324,116.927780 
	C27.802219,116.933495 28.209887,117.221550 28.642944,117.769913 
z"/>
<path fill="#AEA2E3" opacity="1.000000" stroke="none" 
	d="
M32.106674,119.346733 
	C32.089729,119.070580 32.580723,119.036209 32.826561,119.053421 
	C32.988094,119.343987 32.864128,119.597984 32.541573,119.972244 
	C32.296307,119.948868 32.209965,119.785873 32.106674,119.346733 
z"/>
<path fill="#A57DDE" opacity="1.000000" stroke="none" 
	d="
M87.306534,134.474609 
	C87.357635,134.172134 87.600861,134.177917 87.917221,134.443481 
	C87.995239,134.547333 87.503540,134.626968 87.306534,134.474609 
z"/>
<path fill="#AEA2E3" opacity="1.000000" stroke="none" 
	d="
M36.195221,134.893799 
	C36.099937,134.550644 36.346581,134.348740 36.913528,134.216629 
	C36.924545,134.441849 36.692318,134.691391 36.195221,134.893799 
z"/>
<path fill="#8573D4" opacity="1.000000" stroke="none" 
	d="
M26.125172,116.198990 
	C25.951529,115.971436 26.428387,115.957649 26.666306,115.969986 
	C26.904226,115.982330 27.250088,116.166603 27.313259,116.348724 
	C27.017227,116.496071 26.658022,116.461304 26.125172,116.198990 
z"/>
<path fill="#E7DFFB" opacity="1.000000" stroke="none" 
	d="
M79.375488,133.916870 
	C79.205818,133.833084 79.178780,133.662567 79.237556,133.247696 
	C79.662148,133.226486 79.727066,133.502090 79.375488,133.916870 
z"/>
<path fill="#725DCA" opacity="1.000000" stroke="none" 
	d="
M63.684189,119.955025 
	C63.734623,120.160736 63.518578,120.461960 63.033066,120.855774 
	C62.981632,120.649094 63.199669,120.349823 63.684189,119.955025 
z"/>
<path fill="#8573D4" opacity="1.000000" stroke="none" 
	d="
M27.316204,133.035110 
	C27.253805,132.826950 27.447468,132.540268 27.894920,132.171722 
	C27.956562,132.378754 27.764414,132.667679 27.316204,133.035110 
z"/>
<path fill="#E7DFFB" opacity="1.000000" stroke="none" 
	d="
M29.202179,131.965805 
	C29.094381,131.843018 29.152756,131.671967 29.364614,131.277344 
	C29.468185,131.341690 29.418268,131.629623 29.202179,131.965805 
z"/>
<path fill="#E29165" opacity="1.000000" stroke="none" 
	d="
M127.691238,88.167999 
	C127.991127,88.211067 128.151047,88.430008 128.310974,88.648956 
	C128.171860,88.705650 128.032745,88.762352 127.659790,88.797318 
	C127.425941,88.775574 127.551277,88.343872 127.691238,88.167999 
z"/>
<path fill="#8370D9" opacity="1.000000" stroke="none" 
	d="
M50.051178,88.485947 
	C50.018021,88.728745 49.841515,88.810089 49.378166,88.941528 
	C49.097950,88.444229 49.350739,88.198135 50.051178,88.485947 
z"/>
<path fill="#E29165" opacity="1.000000" stroke="none" 
	d="
M142.655289,71.888229 
	C142.923279,71.969025 142.945435,72.172134 142.983124,72.681137 
	C142.796890,72.981743 142.595108,72.976479 142.091949,72.934570 
	C141.996857,72.602142 142.203156,72.306351 142.655289,71.888229 
z"/>
<path fill="#E29165" opacity="1.000000" stroke="none" 
	d="
M132.266418,96.222595 
	C134.038055,90.210709 136.194672,84.524483 143.703506,83.249725 
	C141.516769,88.364006 136.889450,91.643547 133.569305,96.374298 
	C133.004059,96.478455 132.769897,96.463806 132.266418,96.222595 
z"/>
<path fill="#D78C79" opacity="1.000000" stroke="none" 
	d="
M131.888550,96.214737 
	C132.186111,96.006828 132.375107,96.017632 132.847366,96.048225 
	C134.480331,98.102585 133.577026,99.699577 131.760925,101.365143 
	C131.261566,100.332809 131.136734,99.127357 131.009399,97.465897 
	C131.325027,96.898781 131.582733,96.706635 131.888550,96.214737 
z"/>
<path fill="#E29165" opacity="1.000000" stroke="none" 
	d="
M125.360489,93.887550 
	C125.178085,94.011444 125.129829,93.591446 125.158615,93.383064 
	C125.187401,93.174683 125.589500,93.062424 125.797150,93.041222 
	C125.922058,93.312172 125.768097,93.560051 125.360489,93.887550 
z"/>
<path fill="#E29165" opacity="1.000000" stroke="none" 
	d="
M143.993835,82.230225 
	C144.176468,81.999733 144.344345,82.000984 144.763992,82.005035 
	C145.149017,82.151405 145.282257,82.294952 145.329636,82.719711 
	C145.079391,83.107681 144.914978,83.214439 144.461670,83.266235 
	C144.172806,83.211273 144.048691,83.065872 143.983521,82.994125 
	C143.918365,82.922371 143.979080,82.461960 143.993835,82.230225 
z"/>
<path fill="#FDF9F9" opacity="1.000000" stroke="none" 
	d="
M143.968811,83.472969 
	C144.172806,83.211273 144.606888,83.136604 144.798431,83.027908 
	C145.415649,82.475464 146.024399,82.546516 146.737732,82.162926 
	C146.931564,81.959267 146.985153,82.002602 146.976776,81.969177 
	C148.764984,80.273949 151.272522,80.538734 153.699860,79.467644 
	C154.794632,79.034599 155.545456,78.814133 156.735840,78.719177 
	C158.216415,78.690826 159.279999,78.789375 160.623352,79.460815 
	C162.501175,79.908356 164.034241,80.147652 165.931076,80.435272 
	C167.883179,81.930153 169.959167,82.358360 172.189835,83.211288 
	C173.854477,84.415642 175.190781,85.557930 176.826172,86.836212 
	C178.333694,88.481117 179.542130,89.990036 180.970398,91.747154 
	C182.240723,94.279839 183.291245,96.564316 184.562592,99.126892 
	C184.847580,102.962234 184.911743,106.519470 184.994934,110.533798 
	C185.353149,111.297913 185.560501,111.677040 185.620392,112.461311 
	C185.241684,114.073174 184.664536,115.247742 183.719498,116.602585 
	C183.486740,117.086845 183.420425,117.292717 183.124542,117.727814 
	C182.894943,117.957031 182.984024,117.976585 182.953552,117.942665 
	C182.291656,119.057426 181.470505,120.122231 181.074585,121.690384 
	C180.809921,121.888802 180.898727,121.961716 180.885193,121.905884 
	C180.751633,122.168800 180.560028,122.437927 180.083633,122.780167 
	C179.860229,122.895828 179.910278,122.837509 179.872223,122.832230 
	C179.481613,123.555328 178.869690,124.063065 178.063522,124.777382 
	C177.530045,125.007011 177.298447,125.158241 177.029633,125.581879 
	C176.766296,126.128418 176.531631,126.436424 175.950378,126.793060 
	C175.421783,126.928650 175.212097,127.041603 174.961945,127.397522 
	C174.692200,128.299500 174.080902,128.457138 173.186493,128.764633 
	C172.916489,128.932419 172.922089,128.907486 172.908173,128.895782 
	C169.210434,130.358734 165.594055,132.043915 161.280762,132.708649 
	C156.532410,133.093262 152.263000,132.141617 147.653061,130.895111 
	C144.301743,128.787094 141.107025,127.007500 138.285583,124.192581 
	C137.263672,123.107628 136.543320,122.161057 135.581543,121.046371 
	C134.259949,118.159401 133.179764,115.440559 131.985046,112.374863 
	C129.316071,109.151863 130.936325,105.719658 130.924622,102.225647 
	C131.241562,101.904259 131.395615,101.749718 131.390991,101.643982 
	C131.948364,99.952309 132.510345,98.366356 133.101471,96.424217 
	C135.784912,91.189133 139.330566,87.078812 143.968811,83.472969 
z"/>
<path fill="#A57DDE" opacity="1.000000" stroke="none" 
	d="
M184.723602,113.096710 
	C184.866852,112.293327 184.865051,111.916275 184.938629,111.265045 
	C185.917145,110.463104 185.992401,109.581421 186.014709,108.335976 
	C192.000229,105.284271 192.000229,105.284271 192.003784,112.613060 
	C192.003860,112.778740 192.003922,112.944412 192.004135,113.552147 
	C188.728485,113.097733 187.778442,116.657860 185.187500,117.208275 
	C184.053818,115.915054 184.501450,114.696838 184.723602,113.096710 
z"/>
<path fill="#B084CA" opacity="1.000000" stroke="none" 
	d="
M184.636902,112.923866 
	C184.909576,113.818977 184.950516,114.967560 184.991455,116.541672 
	C184.991455,116.967201 184.495285,116.983284 184.247192,116.991127 
	C183.850830,117.125732 183.702560,117.252487 183.337891,117.182312 
	C183.549393,115.716034 183.977280,114.446693 184.636902,112.923866 
z"/>
<path fill="#A982D8" opacity="1.000000" stroke="none" 
	d="
M181.121674,121.753281 
	C180.779282,120.448273 181.460571,119.311974 182.640198,118.088242 
	C183.006668,119.378090 182.329239,120.541786 181.121674,121.753281 
z"/>
<path fill="#A982D8" opacity="1.000000" stroke="none" 
	d="
M178.166733,124.922211 
	C178.291519,124.289940 178.767639,123.641731 179.538940,122.910233 
	C179.935471,123.861847 179.702820,124.685379 178.166733,124.922211 
z"/>
<path fill="#A982D8" opacity="1.000000" stroke="none" 
	d="
M173.255615,128.923279 
	C173.376541,128.548035 173.836609,128.163651 174.587036,127.668976 
	C174.759506,128.303528 174.351730,128.774063 173.255615,128.923279 
z"/>
<path fill="#A57DDE" opacity="1.000000" stroke="none" 
	d="
M183.028259,117.219757 
	C183.121490,116.985374 183.560272,116.994232 183.779694,116.996605 
	C183.792053,117.261559 183.584991,117.524139 183.136444,117.871872 
	C182.908295,117.789398 182.921661,117.621765 183.028259,117.219757 
z"/>
<path fill="#A982D8" opacity="1.000000" stroke="none" 
	d="
M180.112366,122.817078 
	C180.026260,122.594330 180.192307,122.292839 180.614990,121.920692 
	C180.702621,122.146141 180.533569,122.442238 180.112366,122.817078 
z"/>
<path fill="#A982D8" opacity="1.000000" stroke="none" 
	d="
M175.973663,126.825424 
	C175.923996,126.607864 176.172455,126.318230 176.679779,125.900253 
	C176.716354,126.099052 176.494080,126.426201 175.973663,126.825424 
z"/>
<path fill="#ECE4FE" opacity="1.000000" stroke="none" 
	d="
M87.350594,123.943008 
	C87.328850,123.395691 87.339363,123.198151 87.442871,123.088097 
	C89.236084,121.181717 91.294876,121.701050 93.294754,122.586143 
	C93.953827,122.877838 94.013367,124.023895 93.548164,124.284698 
	C91.571129,125.393066 89.476204,125.289825 87.350594,123.943008 
z"/>
<path fill="#DD896B" opacity="1.000000" stroke="none" 
	d="
M161.067566,79.343681 
	C159.884033,79.689133 158.799957,79.709206 157.314407,79.660431 
	C156.298462,79.493774 155.678558,79.483208 154.525558,79.226807 
	C153.711945,76.709274 153.148331,74.317833 156.951126,74.920403 
	C158.336151,75.139862 158.943008,74.107231 158.993164,72.394974 
	C160.316437,72.162560 161.746857,72.036369 162.905563,72.537918 
	C164.549042,73.249290 167.711334,72.282318 167.495285,75.166199 
	C167.331635,77.350815 164.741409,77.630638 162.781525,78.058640 
	C162.201172,78.185387 161.702911,78.687950 161.067566,79.343681 
z"/>
<path fill="#DE997A" opacity="1.000000" stroke="none" 
	d="
M154.252075,79.687500 
	C151.912476,80.570824 149.810333,81.225136 147.338303,81.907600 
	C148.046860,78.811790 151.177292,80.071411 153.606720,78.993393 
	C153.992676,78.977783 153.999344,78.996681 154.001801,79.004044 
	C154.166016,79.160431 154.327774,79.309456 154.252075,79.687500 
z"/>
<path fill="#DE997A" opacity="1.000000" stroke="none" 
	d="
M146.612213,81.963837 
	C146.476608,82.273659 146.021667,82.588043 145.278351,82.910828 
	C144.989990,82.919212 144.996201,82.463257 145.005981,82.235558 
	C145.441467,81.994705 145.867172,81.981560 146.612213,81.963837 
z"/>
<path fill="#ECE4FE" opacity="1.000000" stroke="none" 
	d="
M21.311817,131.130096 
	C20.239000,131.171875 19.495256,131.132736 18.383381,131.158096 
	C17.574196,131.157181 17.133139,131.091766 16.357155,131.010391 
	C15.996821,129.691666 15.971416,128.388901 16.037548,126.703354 
	C17.254080,124.805740 18.677319,124.789398 20.616028,125.778793 
	C23.472410,126.618958 24.789619,127.831390 23.228737,130.770996 
	C22.542336,131.035736 22.091612,131.042450 21.311817,131.130096 
z"/>
<path fill="#E7DFFB" opacity="1.000000" stroke="none" 
	d="
M16.508526,123.183502 
	C15.964101,121.158455 14.807998,119.240372 17.622988,118.029312 
	C19.825640,118.527176 22.421190,117.095428 23.407167,119.765923 
	C23.940638,121.210815 22.834641,122.096954 21.290234,122.832932 
	C19.711239,124.043655 18.331131,124.272995 16.508526,123.183502 
z"/>
<path fill="#725DCA" opacity="1.000000" stroke="none" 
	d="
M15.954165,123.066788 
	C17.523420,122.875923 18.858534,122.882072 20.592407,122.939529 
	C20.992781,123.756927 20.994398,124.523018 20.991283,125.672691 
	C19.635466,126.119934 18.284380,126.183594 16.531189,126.283920 
	C15.992732,125.301659 15.856378,124.282722 15.954165,123.066788 
z"/>
<path fill="#725DCA" opacity="1.000000" stroke="none" 
	d="
M112.028793,122.016983 
	C110.702942,121.939919 109.350479,121.844116 107.505135,121.713394 
	C109.214813,120.685417 110.405922,120.904739 111.821014,121.770187 
	C112.045967,122.041969 112.002197,121.998253 112.028793,122.016983 
z"/>
<path fill="#D78C79" opacity="1.000000" stroke="none" 
	d="
M130.920319,102.137756 
	C131.285568,105.018059 130.897614,108.160820 131.867981,111.620354 
	C131.609268,112.438835 131.166306,112.829018 131.116867,113.263916 
	C130.839767,115.701736 130.991913,119.174011 128.193573,119.310646 
	C125.673698,119.433685 125.288177,115.827652 124.144325,113.330559 
	C127.431877,112.889984 128.670364,110.284447 129.976837,107.387276 
	C130.157211,105.468224 129.605286,103.816956 130.920319,102.137756 
z"/>
<path fill="#BA85B5" opacity="1.000000" stroke="none" 
	d="
M168.841217,95.839249 
	C172.172318,98.124466 173.675003,101.346352 173.801514,105.589218 
	C167.814636,109.734192 164.020477,115.926834 157.824554,119.899017 
	C157.023651,120.597824 156.395691,120.880859 155.331879,120.992264 
	C151.619034,120.928368 149.175949,119.082855 146.822159,116.487740 
	C148.479858,114.449379 151.128021,113.698807 152.548630,111.022408 
	C153.280457,110.623276 153.766312,110.554878 154.251953,110.642418 
	C162.335434,112.099533 163.964569,110.615723 163.206406,102.165451 
	C164.212646,99.155426 167.230560,98.375511 168.841217,95.839249 
z"/>
<path fill="#A67EDA" opacity="1.000000" stroke="none" 
	d="
M157.266708,120.263588 
	C162.067368,115.006737 166.156677,108.902069 173.384430,105.982834 
	C173.778122,113.707077 169.913559,118.573669 162.337341,120.978806 
	C160.483063,120.914589 158.957306,121.221558 157.266708,120.263588 
z"/>
<path fill="#D69184" opacity="1.000000" stroke="none" 
	d="
M168.976715,95.373474 
	C169.849411,99.545219 165.998306,99.638191 164.109131,101.830017 
	C160.906555,102.504501 158.030243,100.549553 154.576172,101.516098 
	C153.972260,101.518852 153.730133,101.491676 153.162582,101.295120 
	C152.421692,100.439392 152.435852,99.740433 153.004120,98.743134 
	C153.599121,98.136353 153.990875,97.853767 154.733688,97.463730 
	C157.155136,96.719627 159.606598,96.639038 160.199829,93.477272 
	C160.254105,92.696747 160.348511,92.262131 160.714142,91.580879 
	C164.141510,91.347755 166.572296,93.009819 168.976715,95.373474 
z"/>
<path fill="#F18E42" opacity="1.000000" stroke="none" 
	d="
M154.067032,98.630959 
	C153.634171,99.426544 153.317230,99.910187 152.972183,100.692924 
	C153.101898,101.140938 153.259705,101.289871 153.466919,101.760696 
	C153.418747,102.510803 153.224380,102.887024 152.635986,103.354691 
	C152.150681,103.544617 151.944656,103.581482 151.429825,103.599083 
	C150.535370,103.465797 149.957367,103.304558 149.066589,103.338211 
	C147.617050,103.608910 147.263031,104.606560 146.593201,105.771439 
	C145.729630,106.826477 144.981857,107.424347 143.662140,106.784737 
	C142.837708,104.210342 143.615219,102.217400 144.600418,99.847153 
	C144.748016,99.116562 144.821442,98.786186 145.032684,98.239975 
	C146.210739,96.784775 147.363144,95.652260 148.757568,94.272438 
	C149.003143,94.028526 148.999542,93.994011 149.015747,94.000229 
	C149.752655,93.405388 150.665176,93.161568 151.757339,92.522240 
	C153.451782,91.956825 154.850662,91.570984 156.606430,91.261078 
	C158.445374,93.052933 157.378448,94.282799 156.109406,95.373154 
	C155.162033,96.187111 153.803162,96.662315 154.067032,98.630959 
z"/>
<path fill="#D39089" opacity="1.000000" stroke="none" 
	d="
M150.687164,103.061279 
	C151.154846,102.872559 151.333557,102.885193 151.776550,102.946342 
	C153.760559,105.137306 153.683716,107.654564 153.317307,110.542343 
	C152.513016,114.005676 151.251007,116.376663 147.097229,116.121048 
	C144.869095,114.739716 143.720871,112.887794 143.223389,110.304901 
	C147.173813,109.371315 148.849319,106.384476 150.687164,103.061279 
z"/>
<path fill="#E38964" opacity="1.000000" stroke="none" 
	d="
M150.804321,102.635284 
	C149.743820,106.365479 150.121048,111.449066 143.580322,110.018173 
	C143.132141,109.229294 143.010559,108.492706 142.916687,107.382263 
	C143.112595,106.882576 143.280807,106.756737 143.710648,106.806473 
	C144.568542,106.501404 145.164780,106.020760 145.882477,105.272324 
	C146.866257,104.152184 147.724060,103.295273 148.791153,102.218964 
	C149.546951,102.139091 150.089722,102.274864 150.804321,102.635284 
z"/>
<path fill="#EC9052" opacity="1.000000" stroke="none" 
	d="
M154.183624,98.864540 
	C152.272217,97.401154 151.272369,95.904175 154.449493,95.029655 
	C156.038834,94.592171 156.946838,93.722580 156.960297,91.684433 
	C158.024857,91.266182 159.086365,91.195351 160.537216,91.223000 
	C160.948929,91.692924 160.971329,92.064362 161.008347,92.715088 
	C160.281677,95.849380 157.773331,96.558250 155.261902,97.793762 
	C154.913879,98.362991 154.709549,98.611252 154.183624,98.864540 
z"/>
<path fill="#B084CA" opacity="1.000000" stroke="none" 
	d="
M156.701706,120.016937 
	C158.494293,120.137711 159.985657,120.281471 161.724670,120.700012 
	C159.930191,122.318680 157.760239,121.989601 155.279099,121.242645 
	C155.455475,120.694412 155.927979,120.367165 156.701706,120.016937 
z"/>
<path fill="#EBA061" opacity="1.000000" stroke="none" 
	d="
M143.975235,106.562630 
	C143.800980,106.986038 143.629684,106.990021 143.201385,107.001205 
	C141.969894,104.409454 142.738449,102.091125 144.384338,99.657135 
	C144.442459,101.679031 144.210312,103.911118 143.975235,106.562630 
z"/>
<path fill="#EBA061" opacity="1.000000" stroke="none" 
	d="
M148.673035,94.065231 
	C148.847565,96.066574 147.581482,97.201233 145.497345,97.980240 
	C145.363632,96.017624 146.804657,95.020454 148.673035,94.065231 
z"/>
<path fill="#EBA061" opacity="1.000000" stroke="none" 
	d="
M151.751709,92.393051 
	C151.831757,93.699615 150.859406,93.998100 149.361130,94.012901 
	C149.474335,92.922531 150.403717,92.592163 151.751709,92.393051 
z"/>
<path fill="#D69184" opacity="1.000000" stroke="none" 
	d="
M154.382385,79.949249 
	C154.014603,79.916519 154.005203,79.463875 154.004730,79.237640 
	C154.812805,79.083778 155.621353,79.156151 156.671417,79.410057 
	C156.192017,79.721718 155.471100,79.851845 154.382385,79.949249 
z"/>
<path fill="#FCF6F7" opacity="1.000000" stroke="none" 
	d="
M153.420746,111.055580 
	C152.057404,108.644371 151.522583,106.314346 152.036438,103.411209 
	C152.349335,102.840446 152.579300,102.608269 152.815155,102.064072 
	C153.087234,101.714073 153.274902,101.598320 153.694870,101.247124 
	C157.233612,99.005737 160.320679,99.798531 163.635864,101.953674 
	C165.145096,105.364105 165.843445,108.469460 162.732162,111.122925 
	C159.728607,113.684525 156.763184,113.293938 153.420746,111.055580 
z"/>
<path fill="#E38964" opacity="1.000000" stroke="none" 
	d="
M155.422440,98.036667 
	C155.687042,95.177452 159.150787,95.485786 160.711639,93.142525 
	C161.835205,97.307320 159.208496,98.065536 155.422440,98.036667 
z"/>
<path fill="#D39089" opacity="1.000000" stroke="none" 
	d="
M153.681396,101.006523 
	C153.830276,101.324432 153.639328,101.561417 153.126953,101.776215 
	C152.899582,101.829819 152.891525,101.409317 152.917816,101.200668 
	C152.944092,100.992012 153.435638,101.001373 153.681396,101.006523 
z"/>
<path fill="#EC9052" opacity="1.000000" stroke="none" 
	d="
M148.663147,102.035690 
	C148.938293,103.540665 148.270477,104.601837 146.343933,104.970367 
	C146.057846,103.458244 146.730133,102.400116 148.663147,102.035690 
z"/>
</svg>